<?xml version="1.0" encoding="UTF-8"?>
<svg width="18px" height="14px" viewBox="0 0 18 14" version="1.1" xmlns="http://www.w3.org/2000/svg" xmlns:xlink="http://www.w3.org/1999/xlink">
    <!-- Generator: Sketch 52.2 (67145) - http://www.bohemiancoding.com/sketch -->
    <title>完成 copy</title>
    <desc>Created with Sketch.</desc>
    <g id="H5" stroke="none" stroke-width="1" fill="none" fill-rule="evenodd">
        <g id="注册2" transform="translate(-27.000000, -739.000000)">
            <g id="分组" transform="translate(20.000000, 730.000000)">
                <g id="完成-copy" transform="translate(5.000000, 5.000000)">
                    <rect id="矩形" fill="#000000" opacity="0" x="0" y="0" width="22" height="22"></rect>
                    <path d="M19.5658203,6.50332031 L8.77421875,17.2949219 C8.27792969,17.7912109 7.47226562,17.7912109 6.97597656,17.2949219 L6.07578125,16.3947266 L17.7654297,4.70507812 C18.2617188,4.20878906 19.0673828,4.20878906 19.5636719,4.70507812 C20.0621094,5.20136719 20.0621094,6.00703125 19.5658203,6.50332031 Z M6.97382812,17.2949219 L2.47714844,12.7982422 C1.98085937,12.3019531 1.98085937,11.4962891 2.47714844,11 C2.9734375,10.5037109 3.77910156,10.5037109 4.27539062,11 L9.67226562,16.396875 L8.77421875,17.2949219 C8.27578125,17.7912109 7.47226562,17.7912109 6.97382812,17.2949219 Z" id="形状" fill="#FFFFFF" fill-rule="nonzero"></path>
                </g>
            </g>
        </g>
    </g>
</svg>