<?xml version="1.0" encoding="UTF-8"?>
<svg width="11px" height="9px" viewBox="0 0 11 9" version="1.1" xmlns="http://www.w3.org/2000/svg" xmlns:xlink="http://www.w3.org/1999/xlink">
    <!-- Generator: Sketch 52.2 (67145) - http://www.bohemiancoding.com/sketch -->
    <title>Imported Layers</title>
    <desc>Created with Sketch.</desc>
    <g id="H5" stroke="none" stroke-width="1" fill="none" fill-rule="evenodd">
        <g id="login3" transform="translate(-28.000000, -337.000000)" fill="#222222">
            <g id="Checkbox" transform="translate(20.000000, 328.000000)">
                <path d="M16.59555,9.844875 L12.15,14.290425 L10.40445,12.544875 C10.1601,12.300525 9.8226,12.149325 9.45,12.149325 C8.704125,12.149325 8.1,12.754125 8.1,13.5 C8.1,13.8726 8.2512,14.2101 8.49555,14.45445 L11.19555,17.15445 C11.439225,17.3988 11.7774,17.549325 12.15,17.549325 C12.5226,17.549325 12.8601,17.3988 13.10445,17.15445 L18.50445,11.75445 C18.7488,11.5101 18.9,11.1726 18.9,10.799325 C18.9,10.054125 18.2952,9.45 17.55,9.45 C17.1774,9.45 16.839225,9.600525 16.59555,9.844875 Z" id="Imported-Layers"></path>
            </g>
        </g>
    </g>
</svg>